<?xml version="1.0" encoding="UTF-8"?>
<svg version="1.1" xmlns="http://www.w3.org/2000/svg" width="512" height="512">
<path d="M0 0 C0.76166473 -0.00067474 1.52332947 -0.00134949 2.30807495 -0.00204468 C13.68232266 0.01397391 24.55281546 0.48474142 35.625 3.25 C36.32254395 3.41628906 37.02008789 3.58257812 37.73876953 3.75390625 C58.62969329 8.82748342 77.27457524 19.67077159 92.74609375 34.51171875 C94.89345152 36.55418523 97.05318917 38.48266017 99.3046875 40.40234375 C104.09798782 44.56558666 108.46313105 49.12206335 112.88909912 53.66827393 C120.86786417 61.83384082 128.64765153 69.54650819 138.625 75.25 C139.28371094 75.66636719 139.94242187 76.08273438 140.62109375 76.51171875 C154.59907907 84.59790811 173.07565373 85.33830914 188.4375 81.6875 C207.37477822 75.92134157 222.56994647 62.63058554 234.625 47.25 C237.77000751 56.68502254 228.21560009 73.56520845 223.94140625 82.11865234 C210.22071928 108.1762031 189.72098757 126.95200691 161.625 136.25 C150.81205563 139.34214131 139.74066922 141.38635757 128.48046875 141.453125 C127.32748039 141.46167511 127.32748039 141.46167511 126.15119934 141.47039795 C124.52667594 141.47980054 122.90213388 141.48636295 121.27758789 141.49023438 C118.85721887 141.49982284 116.43774423 141.53084121 114.01757812 141.5625 C99.95237397 141.65890212 85.83940746 140.32419562 72.5 135.5625 C71.7668457 135.30758789 71.03369141 135.05267578 70.27832031 134.79003906 C52.73212782 128.47340977 37.98096889 118.77782012 24.5078125 105.98046875 C21.65838231 103.2816182 18.74455813 100.67099313 15.8125 98.0625 C12.69164223 95.23589454 9.78126047 92.40173551 7.0625 89.1875 C-6.66800805 72.98419903 -24.23246892 61.25894964 -45.375 58.25 C-66.14490145 56.75240663 -84.00134091 63.30863467 -99.71875 76.80615234 C-104.23946688 80.8829709 -108.17003361 85.42250409 -111.95019531 90.1862793 C-113.05415492 91.57170229 -114.21012882 92.91538439 -115.375 94.25 C-116.035 94.25 -116.695 94.25 -117.375 94.25 C-112.48898048 71.62001484 -102.62746835 50.70507636 -87.375 33.25 C-86.77171875 32.55777344 -86.1684375 31.86554688 -85.546875 31.15234375 C-63.45245159 7.60998482 -31.13295955 0.0247077 0 0 Z " fill="#4CB6AC" transform="translate(255.375,114.75)"/>
<path d="M0 0 C2.33189542 0.01608708 4.66205268 0.00003242 6.99389648 -0.01904297 C20.84371602 -0.03928434 34.90203679 1.39482549 48.02319336 6.07861328 C48.75634766 6.33352539 49.48950195 6.5884375 50.24487305 6.85107422 C67.79106554 13.16770351 82.54222446 22.86329316 96.01538086 35.66064453 C98.86481105 38.35949508 101.77863523 40.97012015 104.71069336 43.57861328 C107.83155113 46.40521874 110.74193289 49.23937777 113.46069336 52.45361328 C127.9975866 69.60852521 146.931269 81.74974483 169.55444336 83.70751953 C190.24255612 84.38118707 207.55777943 76.30545838 222.65209961 62.57861328 C226.84926947 58.58154539 230.46357278 54.17092132 234.00756836 49.59423828 C234.94342773 48.50369141 234.94342773 48.50369141 235.89819336 47.39111328 C236.55819336 47.39111328 237.21819336 47.39111328 237.89819336 47.39111328 C233.49618893 67.7793443 225.04505801 88.79898937 210.89819336 104.39111328 C209.83665039 105.64601563 209.83665039 105.64601563 208.75366211 106.92626953 C190.53290075 128.08277528 164.26433627 138.66944839 136.89819336 141.39111328 C131.44228338 141.62594441 125.98362604 141.63677978 120.52319336 141.64111328 C119.76152863 141.64178802 118.99986389 141.64246277 118.21511841 141.64315796 C106.8408707 141.62713937 95.9703779 141.15637186 84.89819336 138.39111328 C84.20064941 138.22482422 83.50310547 138.05853516 82.78442383 137.88720703 C52.9521663 130.64213437 30.11397431 111.01087574 9.10131836 89.51220703 C0.56495979 80.77885557 -7.50308857 72.58099822 -18.10180664 66.39111328 C-19.3509082 65.63314453 -19.3509082 65.63314453 -20.62524414 64.85986328 C-34.65409656 57.05092278 -52.50648738 56.26844414 -67.91430664 59.95361328 C-86.85158486 65.71977171 -102.04675311 79.01052774 -114.10180664 94.39111328 C-117.24681415 84.95609074 -107.69240673 68.07590484 -103.41821289 59.52246094 C-89.81108906 33.68058286 -69.16123014 14.59654514 -41.16430664 5.57861328 C-27.46914773 1.69421315 -14.21800102 -0.11599248 0 0 Z " fill="#4CB6AC" transform="translate(136.101806640625,255.60888671875)"/>
</svg>
